<svg xmlns="http://www.w3.org/2000/svg" xmlns:xlink="http://www.w3.org/1999/xlink" width="32px" height="32px" role="img"
     viewBox="0 0 24 24" aria-hidden="true">
    <g fill="none" fill-rule="evenodd">
        <path fill="#e7ab46"
              d="m 11.938,19.758 a 7.817,7.817 0 0 1 -7.815,-7.82 7.818,7.818 0 1 1 15.634,0 7.819,7.819 0 0 1 -7.818,7.82 M 11.939,2 c 5.486,0 9.937,4.447 9.937,9.938 0,5.488 -4.45,9.938 -9.937,9.938 C 6.454,21.876 2,17.426 2,11.938 2,6.448 6.454,2 11.939,2 Z m -0.554,5.624 a 0.554,0.554 0 0 0 1.108,0 V 5.64 a 0.554,0.554 0 0 0 -1.108,0 z m 0,10.688 a 0.555,0.555 0 0 0 1.108,0 v -1.984 a 0.551,0.551 0 0 0 -0.551,-0.55 0.553,0.553 0 0 0 -0.557,0.55 z m 7.181,-6.16 c 0.31,0 0.55,-0.247 0.55,-0.55 a 0.547,0.547 0 0 0 -0.55,-0.554 h -1.984 a 0.556,0.556 0 0 0 -0.557,0.555 c 0,0.302 0.251,0.55 0.557,0.55 h 1.984 z m -11.14,0 a 0.552,0.552 0 1 0 0,-1.104 H 5.442 a 0.555,0.555 0 0 0 -0.556,0.555 c 0,0.302 0.25,0.55 0.556,0.55 h 1.982 z m 0.88,-3.5 c 0.082,0.08 0.188,0.12 0.294,0.12 a 0.41,0.41 0 0 0 0.291,-0.12 0.418,0.418 0 0 0 0,-0.588 L 7.899,7.073 a 0.415,0.415 0 0 0 -0.586,0 0.421,0.421 0 0 0 0,0.587 z m 8.13,8.065 c 0.083,0.08 0.19,0.12 0.294,0.12 a 0.413,0.413 0 0 0 0.29,-0.706 l -0.992,-0.993 a 0.418,0.418 0 0 0 -0.585,0 0.42,0.42 0 0 0 0,0.585 z M 15.966,8.652 16.957,7.66 A 0.41471948,0.41471948 0 1 0 16.372,7.072 l -0.989,0.992 a 0.412,0.412 0 0 0 0,0.588 0.412,0.412 0 0 0 0.582,0 z m -8.131,8.066 0.99,-0.994 A 0.41295097,0.41295097 0 1 0 8.242,15.139 L 7.25,16.132 a 0.426,0.426 0 0 0 0,0.586 c 0.08,0.08 0.186,0.12 0.292,0.12 0.106,0 0.215,-0.04 0.293,-0.12 z m 3.628,-2.737 c 0.916,-1.107 4.562,-5.576 2.932,-4.566 -1.859,1.152 -4.516,3.113 -4.516,3.113 a 1.097,1.097 0 0 0 -0.414,0.855 1.085,1.085 0 0 0 1.788,0.83 l 0.004,0.01 c 0,0 0.02,-0.02 0.052,-0.057 0.058,-0.057 0.11,-0.117 0.154,-0.185 z"></path>
    </g>
</svg>